<svg xmlns="http://www.w3.org/2000/svg" width="32" height="32" fill="#b9808a" viewBox="0 0 24 24">
  <path d="M20.1 3.9A11.8 11.8 0 0012.04 0C5.4 0 0 5.4 0 12.1c0 2.1.6 4.1 1.7 5.9L0 24l6.3-1.7a12 12 0 005.7 1.4h.1c6.6 0 12-5.4 12-12.1 0-3.2-1.3-6.3-3.6-8.7zM12.1 21c-1.8 0-3.6-.4-5.2-1.3l-.4-.2-3.7 1L4 17.2l-.3-.4A9.6 9.6 0 012.1 12C2 6 6.9 2 12 2h.1c5.1 0 10 4 10 10.1 0 5.7-4.7 9-10 9zm5-6.3c-.3-.2-1.7-.9-2-1-.3-.1-.5-.2-.7.2-.2.3-.8 1-.9 1.1-.2.2-.3.2-.6.1-1.6-.8-2.7-1.5-3.7-3.3-.3-.5.3-.5.9-1.6.1-.2.1-.3 0-.5l-1-2.3c-.2-.6-.4-.5-.7-.5h-.6c-.2 0-.5.1-.8.4-.3.3-1.1 1-1.1 2.4 0 1.4 1 2.7 1.2 2.9.2.3 2 3.2 5 4.4.7.3 1.2.5 1.6.6.7.2 1.3.2 1.8.1.6-.1 1.7-.7 1.9-1.4.2-.7.2-1.3.2-1.5-.1-.2-.3-.3-.6-.5z"/>
</svg>
